<?xml version="1.0" encoding="utf-8"?>
<!-- Generator: Adobe Illustrator 21.0.0, SVG Export Plug-In . SVG Version: 6.00 Build 0)  -->
<svg version="1.1" id="Layer_1" xmlns="http://www.w3.org/2000/svg" xmlns:xlink="http://www.w3.org/1999/xlink" x="0px" y="0px"
	 viewBox="0 0 309.2 309.2" style="enable-background:new 0 0 309.2 309.2;" xml:space="preserve">
<style type="text/css">
	.st0{fill:#FFFFFF;stroke:#231F20;stroke-width:4;stroke-miterlimit:10;}
	.st1{fill:url(#SVGID_1_);}
	.st2{fill:url(#SVGID_2_);}
	.st3{fill:url(#SVGID_3_);}
	.st4{opacity:0.2;fill:#010101;enable-background:new    ;}
	.st5{fill:url(#SVGID_4_);}
	.st6{opacity:7.000000e-02;}
	.st7{fill:#010101;}
	.st8{fill:url(#SVGID_5_);}
	.st9{fill:url(#SVGID_6_);}
	.st10{fill:url(#SVGID_7_);}
	.st11{fill:url(#SVGID_8_);}
	.st12{fill:#403938;}
	.st13{fill:#F4F3EB;}
	.st14{fill:#4FB848;}
	.st15{fill:#EE223A;}
	.st16{fill:#47ABE0;}
	.st17{fill:#FFFFFF;}
</style>
<title>umi_academy_file</title>
<circle class="st0" cx="154.6" cy="154.6" r="152.6"/>
<linearGradient id="SVGID_1_" gradientUnits="userSpaceOnUse" x1="309.7546" y1="-108.5594" x2="309.7546" y2="6.7606" gradientTransform="matrix(0.9996 2.670034e-02 2.670034e-02 -0.9996 -154.2359 110.133)">
	<stop  offset="0" style="stop-color:#109A8F"/>
	<stop  offset="0.46" style="stop-color:#3AAC82"/>
	<stop  offset="0.97" style="stop-color:#6EC173"/>
	<stop  offset="1" style="stop-color:#70C172"/>
</linearGradient>
<circle class="st1" cx="154.4" cy="154.6" r="51"/>
<linearGradient id="SVGID_2_" gradientUnits="userSpaceOnUse" x1="309.6579" y1="-163.2894" x2="309.6579" y2="80.4406" gradientTransform="matrix(0.9996 2.670036e-02 2.670036e-02 -0.9996 -154.2621 110.1283)">
	<stop  offset="0" style="stop-color:#F04E26"/>
	<stop  offset="0.43" style="stop-color:#F2782A"/>
	<stop  offset="1" style="stop-color:#F6B731"/>
</linearGradient>
<path class="st2" d="M264.3,158.8c0.1-4.2,0-8.4-0.4-12.5l23.3-9.9c-1.1-7.9-3-15.7-5.5-23.3l-25.3,1.7c-3.1-7.8-7.2-15.1-12-22
	l15.2-20.2c-5-6.3-10.5-12.1-16.4-17.5l-21,14.1c-6.6-5.2-13.8-9.6-21.4-13.1l3.1-25.1c-7.4-2.9-15.1-5.2-23-6.8l-11.1,22.7
	c-8.3-1.2-16.7-1.4-25.1-0.7L134.7,23c-7.9,1.1-15.7,3-23.3,5.5l1.7,25.3c-7.8,3.1-15.1,7.2-22,12L70.9,50.5
	C64.7,55.5,58.8,61,53.5,67l14.1,21c-5.2,6.6-9.6,13.8-13.1,21.4l-25.1-3.1c-2.9,7.4-5.2,15.1-6.8,23l22.7,11.1
	c-1.2,8.3-1.4,16.7-0.7,25.1l-23.3,9.9c1.1,7.9,3,15.7,5.5,23.2l25.3-1.7c3.1,7.8,7.2,15.1,12,22l-15.3,20.2
	c5,6.3,10.5,12.1,16.5,17.4l21-14.1c6.6,5.2,13.8,9.6,21.4,13.1l-3.1,25.1c7.4,2.9,15.1,5.2,23,6.8l11.1-22.7
	c8.3,1.2,16.7,1.4,25.1,0.7l9.9,23.3c7.9-1.1,15.7-3,23.3-5.5l-1.7-25.3c7.8-3.1,15.1-7.2,22-12l20.2,15.2
	c6.3-5,12.1-10.5,17.4-16.5l-14-21c5.2-6.6,9.6-13.8,13.1-21.4l25.1,3.1c2.9-7.4,5.2-15.1,6.8-23l-22.7-11.1
	C263.8,167.1,264.2,162.9,264.3,158.8z"/>
<linearGradient id="SVGID_3_" gradientUnits="userSpaceOnUse" x1="309.6346" y1="-20.1594" x2="309.6346" y2="109.1306" gradientTransform="matrix(0.9996 2.670034e-02 2.670034e-02 -0.9996 -154.2373 110.1196)">
	<stop  offset="0" style="stop-color:#F04E26"/>
	<stop  offset="0.43" style="stop-color:#F2782A"/>
	<stop  offset="1" style="stop-color:#F6B731"/>
</linearGradient>
<circle class="st3" cx="154.3" cy="155.8" r="81.5"/>
<ellipse transform="matrix(2.670034e-02 -0.9996 0.9996 2.670034e-02 -10.3534 310.2785)" class="st4" cx="154.2" cy="160.5" rx="45.4" ry="45.4"/>
<linearGradient id="SVGID_4_" gradientUnits="userSpaceOnUse" x1="309.6346" y1="-101.9194" x2="309.6346" y2="0.8406" gradientTransform="matrix(0.9996 2.670034e-02 2.670034e-02 -0.9996 -154.2373 110.1196)">
	<stop  offset="0" style="stop-color:#F04E26"/>
	<stop  offset="0.43" style="stop-color:#F2782A"/>
	<stop  offset="1" style="stop-color:#F6B731"/>
</linearGradient>
<circle class="st5" cx="154.3" cy="155.8" r="45.4"/>
<g class="st6">
	<path class="st7" d="M156.2,83.6c43.2,1.2,78,35.8,79.3,79c0.1-1.5,0.2-3.1,0.3-4.6c1.2-45-34.3-82.5-79.3-83.7
		c-45-1.2-82.5,34.3-83.7,79.3c0,1.5,0,3.1,0,4.6C76.4,115.2,113,82.4,156.2,83.6z"/>
</g>
<linearGradient id="SVGID_5_" gradientUnits="userSpaceOnUse" x1="309.6346" y1="-41.5094" x2="309.6346" y2="13.5806" gradientTransform="matrix(0.9996 2.670034e-02 2.670034e-02 -0.9996 -154.2373 110.1196)">
	<stop  offset="0" style="stop-color:#F04E26"/>
	<stop  offset="0.43" style="stop-color:#F2782A"/>
	<stop  offset="1" style="stop-color:#F6B731"/>
</linearGradient>
<circle class="st8" cx="154.3" cy="155.8" r="19.8"/>
<linearGradient id="SVGID_6_" gradientUnits="userSpaceOnUse" x1="309.6464" y1="-53.7294" x2="309.6464" y2="-23.1994" gradientTransform="matrix(0.9996 2.670036e-02 2.670036e-02 -0.9996 -154.2621 110.1283)">
	<stop  offset="0" style="stop-color:#F04E26"/>
	<stop  offset="0.43" style="stop-color:#F2782A"/>
	<stop  offset="1" style="stop-color:#F6B731"/>
</linearGradient>
<path class="st9" d="M166.5,154.4c1.1,0,2.1-0.8,2.1-2c0-0.2,0-0.4-0.1-0.6c-2.2-7.9-10.3-12.5-18.2-10.3c-4.8,1.3-8.5,4.9-10.1,9.6
	c-0.3,1.1,0.3,2.2,1.4,2.6c0.2,0.1,0.4,0.1,0.6,0.1L166.5,154.4z"/>
<linearGradient id="SVGID_7_" gradientUnits="userSpaceOnUse" x1="309.6385" y1="-53.7294" x2="309.6385" y2="-23.1994" gradientTransform="matrix(0.9996 2.670036e-02 2.670036e-02 -0.9996 -154.2621 110.1283)">
	<stop  offset="0" style="stop-color:#F04E26"/>
	<stop  offset="0.43" style="stop-color:#F2782A"/>
	<stop  offset="1" style="stop-color:#F6B731"/>
</linearGradient>
<path class="st10" d="M142.1,157.2c-1.1,0-2.1,0.8-2.1,2c0,0.2,0,0.4,0.1,0.6c2.2,7.9,10.3,12.5,18.2,10.3c4.8-1.3,8.5-4.9,10.1-9.6
	c0.3-1.1-0.3-2.2-1.4-2.6c-0.2-0.1-0.4-0.1-0.6-0.1L142.1,157.2z"/>
<linearGradient id="SVGID_8_" gradientUnits="userSpaceOnUse" x1="309.7671" y1="-54.4794" x2="309.7671" y2="-20.2094" gradientTransform="matrix(0.9996 2.670036e-02 2.670036e-02 -0.9996 -154.2621 110.1283)">
	<stop  offset="0" style="stop-color:#109A8F"/>
	<stop  offset="0.46" style="stop-color:#3AAB82"/>
	<stop  offset="1" style="stop-color:#70C172"/>
</linearGradient>
<path class="st11" d="M168.1,153c1.3,0,2.4-1,2.4-2.2c0-0.2,0-0.4-0.1-0.6c-2.4-8.9-11.6-14-20.5-11.6c-5.3,1.5-9.6,5.5-11.3,10.8
	c-0.4,1.2,0.3,2.5,1.5,2.9c0.2,0.1,0.4,0.1,0.7,0.1L168.1,153z"/>
<path class="st12" d="M32.5,194.7c-2.5-12.1-4.1-24.4-4.6-36.8c-6.1,1.5-12.3,3.3-18.5,5.5c3.7,6.2,7.4,12.3,11.3,18.3
	c-3.8,8.6-7,17.4-9.6,26.5c15.7-10,32.9-17.3,51-21.6l-1.3-1.4C51.2,187.5,41.7,190.7,32.5,194.7z"/>
<path class="st12" d="M299.4,163.4c-5.8-1.9-11.6-3.6-17.4-4.9c-0.6,12.5-2.3,25-5,37.3c-8.7-3.9-17.7-6.9-27-9.2
	c-0.4,0.3-0.8,0.6-1.3,1c17.6,4.1,34.5,11.2,49.8,20.8c-2.7-9-6-17.8-10-26.4C292.3,176,295.9,169.7,299.4,163.4z"/>
<path class="st12" d="M279.3,147.8c-85-26.8-162.7-27-247.8-0.5c0,14.3,1.3,28.6,3.9,42.7c84.9-30.6,155-30.5,239.8,0.5
	C277.9,176.4,279.3,162.1,279.3,147.8z"/>
<circle class="st13" cx="60" cy="161.9" r="4.7"/>
<circle class="st13" cx="253.4" cy="161.9" r="4.7"/>
<path class="st14" d="M63.9,128.1c0.2-1.2,0.7-2.3,1.4-3.2c0.7-1.1,1.6-2,2.7-2.7c1.1-0.8,2.4-1.4,3.8-1.7c1.3-0.4,2.7-0.5,4.1-0.3
	c1.3,0.1,2.5,0.5,3.6,1.1c1.1,0.5,2,1.3,2.8,2.2c0.8,0.9,1.3,2,1.5,3.1l4.1,18.6c0.4,1.6,1.4,3,2.9,3.8c1.5,0.9,3.3,1.2,5,0.8
	c1.7-0.3,3.3-1.3,4.3-2.7c1.1-1.3,1.5-3,1.2-4.6l-3.3-18.7c-0.2-1.2-0.1-2.3,0.2-3.5c0.4-1.1,1-2.2,1.8-3.1c0.8-1,1.8-1.8,2.9-2.4
	c1.2-0.7,2.5-1.1,3.9-1.3c1.4-0.2,2.8-0.2,4.1,0.1c1.2,0.3,2.4,0.8,3.5,1.5c1,0.7,1.8,1.5,2.5,2.5c0.7,1,1.1,2.1,1.2,3.3l2.1,18.9
	c0.3,3.1,0,6.3-1,9.3c-0.9,2.9-2.4,5.7-4.3,8.1c-1.9,2.4-4.3,4.5-6.9,6.1c-5.5,3.4-12,4.7-18.4,3.6c-3.1-0.5-6-1.5-8.7-3
	c-2.7-1.5-5.1-3.5-7.1-5.8c-2.1-2.4-3.6-5.2-4.4-8.2L64,131.6C63.7,130.5,63.7,129.3,63.9,128.1z"/>
<path class="st15" d="M163.1,111.9c2.7,1,5.2,2.4,7.4,4.1c2.5-1.5,5.1-2.6,7.9-3.3c3.3-0.8,6.8-1,10.2-0.6c3.7,0.4,7.3,1.5,10.6,3.2
	c3.1,1.6,5.8,3.7,8,6.4c2.1,2.5,3.6,5.3,4.4,8.4c0.8,3.1,0.9,6.3,0.3,9.4l-3.7,18.7c-0.2,1.1-0.7,2.2-1.4,3.2
	c-0.7,0.9-1.5,1.7-2.4,2.3c-0.9,0.6-2,1.1-3.1,1.4c-1.1,0.3-2.3,0.3-3.5,0.1c-2.3-0.4-4.4-1.6-5.8-3.5c-0.7-0.9-1.2-1.9-1.5-3
	c-0.3-1.1-0.4-2.3-0.3-3.4l2.5-18.9c0.2-1.7-0.3-3.3-1.5-4.6c-1.2-1.4-2.9-2.2-4.7-2.4c-1.8-0.3-3.7,0.2-5.2,1.3
	c-1.4,0.9-2.3,2.5-2.4,4.1l-1.6,19c-0.1,1.2-0.4,2.3-1,3.3c-0.5,1-1.3,1.9-2.1,2.6c-1.8,1.5-4.1,2.3-6.4,2.2
	c-1.2-0.1-2.3-0.3-3.4-0.9c-1-0.5-1.9-1.2-2.7-2c-0.8-0.8-1.4-1.8-1.9-2.8c-0.5-1.1-0.7-2.2-0.6-3.4l0.4-19c0.1-1.7-0.7-3.3-1.9-4.4
	c-2.8-2.5-7-2.5-9.8,0c-1.3,1.1-2,2.7-1.9,4.4l0.4,19c0,1.2-0.2,2.3-0.6,3.4c-0.4,1-1.1,2-1.9,2.8c-0.8,0.8-1.7,1.5-2.7,2
	c-1,0.5-2.2,0.8-3.4,0.9c-2.3,0.1-4.6-0.6-6.4-2.2c-0.8-0.7-1.6-1.6-2.1-2.6c-0.6-1-0.9-2.1-1-3.3l-1.6-19c-0.3-3.2,0.2-6.3,1.3-9.3
	c1.2-3,3-5.7,5.3-7.9c2.5-2.4,5.4-4.2,8.6-5.5c3.5-1.4,7.2-2,10.9-2C156.5,110.1,159.9,110.7,163.1,111.9z"/>
<path class="st16" d="M232.5,164.1c-0.3,1.1-0.9,2.1-1.6,3c-0.7,0.8-1.6,1.6-2.6,2.1c-2.1,1.1-4.5,1.5-6.8,0.9
	c-1.1-0.3-2.2-0.8-3.1-1.5c-0.9-0.7-1.7-1.5-2.3-2.5c-0.6-1-1-2-1.3-3.1c-0.2-1.1-0.2-2.3,0-3.4l7.4-33.1c0.2-1.1,0.8-2.2,1.5-3.1
	c0.8-0.9,1.7-1.6,2.8-2.2c1.1-0.6,2.4-0.9,3.6-1.1c1.4-0.2,2.8-0.1,4.1,0.3c1.4,0.3,2.6,0.9,3.8,1.7c1.1,0.7,2,1.6,2.7,2.7
	c0.7,1,1.1,2.1,1.4,3.2c0.2,1.1,0.2,2.3-0.1,3.5L232.5,164.1z"/>
<g>
	<g>
		<path class="st17" d="M87.9,231.4c-1.1,0-2-0.4-2.8-1.2c-0.8-0.8-1.2-1.8-1.2-2.9c0-10.6,0-15.9,0-26.5c0-1.1,0.4-2,1.2-2.8
			c0.8-0.8,1.7-1.2,2.8-1.2c4.4,0,6.6,0.1,10.9,0.1c1.3,0,2.6,0.3,3.8,0.8c1.2,0.5,2.2,1.3,3.2,2.4c0.9,1,1.6,2.3,2.2,3.7
			c0.5,1.5,0.8,3.1,0.8,4.9c0,1.3-0.1,2.4-0.4,3.3c-0.2,0.9-0.6,1.6-0.9,2.2c-0.4,0.6-0.8,1-1.1,1.3c-0.4,0.3-0.8,0.5-1.1,0.6
			c0.4,0.2,0.8,0.6,1.4,1.1c0.6,0.5,1.1,1.1,1.7,1.7c0.6,0.6,1,1.4,1.4,2.3c0.4,0.9,0.6,1.9,0.6,3c0,1.1-0.3,2.2-0.9,3
			c-0.6,0.9-1.4,1.6-2.4,2.2c-1,0.6-2.1,1.1-3.4,1.4c-1.3,0.4-2.7,0.5-4.1,0.5C94.9,231.5,92.5,231.5,87.9,231.4z M91.9,205.3
			c0,2.6,0,3.9,0,6.5c2.4,0.4,3.6,0.6,6,0.8c0.8,0.1,1.5-0.2,2.1-0.8c0.6-0.6,0.9-1.4,0.9-2.3c0-0.9-0.3-1.8-0.9-2.5
			c-0.6-0.7-1.3-1.1-2.1-1.2C95.6,205.6,94.3,205.5,91.9,205.3z M91.9,218.7c0,2.5,0,3.7,0,6.1c2.7,0.3,4.1,0.4,6.9,0.6
			c0.9,0.1,1.7-0.1,2.4-0.6c0.7-0.5,1-1.1,1-1.9c0-0.8-0.3-1.5-1-2.1c-0.7-0.6-1.4-1-2.4-1.1C96,219.4,94.7,219.2,91.9,218.7z"/>
		<path class="st17" d="M121.7,226.3c4.1,0,6.2,0,10.3-0.1c1,0,1.9,0.2,2.6,0.8c0.7,0.6,1.1,1.2,1.1,2c0,0.8-0.4,1.4-1.1,1.9
			c-0.7,0.5-1.6,0.7-2.6,0.7c-5.7,0-8.6,0-14.4,0c-1.1,0-2-0.3-2.8-0.8c-0.8-0.5-1.2-1.2-1.2-2c0-7.7,0-13,0-26.5
			c0-1.4,0.4-2.6,1.2-3.6c0.8-1,1.7-1.5,2.8-1.5c1.1,0,2.1,0.5,2.9,1.6c0.8,1,1.2,2.3,1.2,3.7C121.7,214.1,121.7,219.2,121.7,226.3z
			"/>
		<path class="st17" d="M145.8,230.8c-2.2-0.7-4-1.6-5.7-2.8c-1.6-1.2-2.9-2.6-3.8-4.4c-0.9-1.8-1.4-3.9-1.4-6.4
			c0-2.5,0.5-5,1.4-7.5c0.9-2.5,2.2-4.9,3.8-6.9c1.6-2,3.5-3.6,5.7-4.8c2.2-1.2,4.5-1.7,6.9-1.7c2.5,0,4.8,0.5,6.9,1.4
			c2.2,0.9,4.1,2.1,5.7,3.5c1.6,1.4,2.9,3.1,3.8,5c0.9,2,1.4,4.1,1.4,6.6c0,2.5-0.5,4.9-1.4,7.3c-0.9,2.4-2.2,4.5-3.8,6.3
			s-3.5,3.2-5.7,4.2c-2.2,1-4.5,1.4-6.9,1.4C150.3,232,148,231.6,145.8,230.8z M143.8,219.9c0.5,1.1,1.2,1.9,2.1,2.7
			c0.9,0.7,1.9,1.3,3.1,1.6c1.2,0.4,2.4,0.5,3.8,0.4c1.3-0.1,2.6-0.5,3.8-1.1c1.2-0.6,2.2-1.4,3.1-2.4c0.9-1,1.6-2.1,2.1-3.4
			c0.5-1.3,0.8-2.6,0.8-3.9c0-1.3-0.3-2.6-0.8-3.7c-0.5-1.1-1.2-2.1-2.1-2.8c-0.9-0.8-1.9-1.4-3.1-1.8c-1.2-0.4-2.5-0.6-3.8-0.5
			c-1.4,0.1-2.6,0.5-3.8,1.2s-2.2,1.5-3.1,2.6c-0.9,1.1-1.6,2.3-2.1,3.6c-0.5,1.3-0.8,2.6-0.8,4C143,217.7,143.2,218.9,143.8,219.9z
			"/>
		<path class="st17" d="M183.3,230.1c-2.1-1.2-4-2.7-5.7-4.5c-1.6-1.8-2.9-3.8-3.8-6.1c-0.9-2.3-1.4-4.6-1.4-7.1
			c0-2.4,0.5-4.7,1.4-6.8c0.9-2.1,2.2-3.9,3.8-5.3c1.6-1.4,3.5-2.5,5.7-3.1c2.1-0.7,4.4-1,6.9-1c3,0,5.6,0.3,8,1.1
			c2.3,0.7,4.3,1.8,5.8,3.2c0.6,0.6,0.9,1.2,0.9,1.9c0,0.6-0.2,1.1-0.5,1.5c-0.4,0.4-0.8,0.8-1.3,1.1c-0.5,0.3-1,0.5-1.5,0.7
			s-1,0.2-1.3,0.2c-1,0-1.9-0.4-2.9-1.3c-0.4-0.3-0.8-0.6-1.3-0.9c-0.5-0.3-1.1-0.6-1.7-0.8c-0.6-0.2-1.3-0.4-2-0.6
			c-0.7-0.1-1.5-0.2-2.2-0.2c-1.4,0-2.6,0.3-3.8,0.7s-2.2,1.2-3.1,2c-0.9,0.9-1.6,1.9-2.1,3c-0.5,1.2-0.8,2.4-0.8,3.7
			c0,1.4,0.3,2.6,0.8,3.9c0.5,1.2,1.2,2.3,2.1,3.2c0.9,0.9,1.9,1.6,3.1,2.2s2.4,0.8,3.8,0.8c1.6,0,3-0.4,4.3-1.3
			c1.3-0.8,2.3-1.7,3-2.6c0.5-0.7,1-1.2,1.4-1.5c0.5-0.3,1-0.4,1.4-0.4s1,0.1,1.6,0.4c0.6,0.3,1,0.7,1.5,1.2
			c0.4,0.5,0.8,1.1,1.1,1.7c0.3,0.6,0.4,1.3,0.4,2c0,1.1-0.3,2.1-0.9,3.1c-1.6,2.4-3.5,4.3-5.8,5.7c-2.3,1.4-5,2.1-8,2.1
			C187.8,232,185.5,231.3,183.3,230.1z"/>
		<path class="st17" d="M235.5,224.4c0.4,0.4,0.7,0.9,0.9,1.4c0.2,0.5,0.3,1,0.3,1.6c0,0.4-0.1,0.8-0.2,1.3
			c-0.2,0.5-0.4,0.9-0.7,1.3c-0.3,0.4-0.7,0.7-1.2,1c-0.5,0.3-1.1,0.4-1.9,0.4c-1.1,0-2.1-0.4-2.9-1.3c-5.4-6.1-8.1-9.8-13.4-16.5
			c0,4.9,0,7.4,0,12.6c0,1.4-0.4,2.6-1.2,3.6s-1.7,1.5-2.9,1.5c-1.1,0-2-0.5-2.8-1.5c-0.8-1-1.2-2.3-1.2-3.7c0-13.4,0-18.7,0-26.4
			c0-0.8,0.4-1.5,1.2-2s1.7-0.8,2.8-0.8c1.1,0,2.1,0.3,2.9,0.9s1.2,1.3,1.2,2.2c0,3,0,4.5,0,7.7c5-3.8,7.5-5.4,12.4-9.6
			c0.8-0.7,1.7-1,2.9-1c0.5,0,0.9,0.1,1.4,0.3c0.5,0.2,0.9,0.4,1.3,0.8c0.4,0.3,0.7,0.8,1,1.3c0.2,0.5,0.4,1.1,0.4,1.7
			c0,0.5-0.1,1-0.3,1.5c-0.2,0.5-0.5,0.8-0.9,1.2c-4.2,3.3-6.3,4.6-10.4,7.5C228.6,215.6,230.9,219.4,235.5,224.4z"/>
	</g>
</g>
</svg>
